<svg xmlns="http://www.w3.org/2000/svg" viewBox="0 0 556.39 220.44"><defs><style>.cls-1{fill:#a8a8a8;}.cls-2{fill:#64debc;}</style></defs><title>Asset 1</title><g id="Layer_2" data-name="Layer 2"><g id="Layer_1-2" data-name="Layer 1"><path class="cls-1" d="M46.46,146.77q.59,8,.59,19.13a151.58,151.58,0,0,1-1.48,21.95,79.37,79.37,0,0,1-4.34,17.26,31.33,31.33,0,0,1-7.1,11.29,13.74,13.74,0,0,1-9.77,4,11.14,11.14,0,0,1-5.23-1.28,12.92,12.92,0,0,1-4.29-3.65A18.25,18.25,0,0,1,12,209.89a24,24,0,0,1-1-7.3,60.61,60.61,0,0,1,1.43-12.72,70.67,70.67,0,0,1,4.68-14,103.31,103.31,0,0,1,8.58-15.24A146.88,146.88,0,0,1,38.76,144.1c-.26-2.83-.61-5.46-1-7.89a36.42,36.42,0,0,0-1.63-6.31,12.69,12.69,0,0,0-2.32-4.14,4.16,4.16,0,0,0-3.2-1.48,5.74,5.74,0,0,0-1.38.19,32.93,32.93,0,0,1-4.1,4.15,22.66,22.66,0,0,1-3.3,2.27,9.48,9.48,0,0,1-2.52,1,9.35,9.35,0,0,1-1.53.2,6,6,0,0,1-3.2-.94c-1-.62-1.53-1.79-1.53-3.5a5.67,5.67,0,0,1,.64-2.27,11,11,0,0,1,2.12-2.91,16.55,16.55,0,0,1,3.9-2.86,20.29,20.29,0,0,1,5.87-2A87.45,87.45,0,0,0,35.71,104.7q3.65-5.86,3.64-11a9.41,9.41,0,0,0-2.76-7.1,9.64,9.64,0,0,0-7-2.66q-5.93,0-11.84,5.52T7.1,104.75a3.6,3.6,0,0,1-3.45,2.17A3.27,3.27,0,0,1,1,105.73a3.89,3.89,0,0,1-1-2.56,3.16,3.16,0,0,1,.39-1.58Q6.21,89.67,13.81,83.05t15.88-6.61a18,18,0,0,1,6.46,1.18A16.55,16.55,0,0,1,41.62,81a16,16,0,0,1,3.75,5.42,18.46,18.46,0,0,1,1.38,7.35,23.46,23.46,0,0,1-.94,6.66,33.23,33.23,0,0,1-2.51,6.21,42.09,42.09,0,0,1-3.65,5.77c-1.38,1.84-2.8,3.62-4.24,5.33a11.45,11.45,0,0,1,4.39,3.35A21.15,21.15,0,0,1,42.66,126a29.31,29.31,0,0,1,1.72,5.53c.4,1.9.73,3.75,1,5.52,2.5-2.7,5.1-5.55,7.79-8.58s5.3-6.08,7.8-9.17,4.78-6.13,6.85-9.13a53.54,53.54,0,0,0,4.88-8.43,3.66,3.66,0,0,1,1.38-1.63,3.75,3.75,0,0,1,2-.54,3.52,3.52,0,0,1,2.71,1.13,3.7,3.7,0,0,1,.74,4,64.18,64.18,0,0,1-6.12,10.6q-3.94,5.67-8.58,11.34t-9.47,10.9Q50.5,142.72,46.46,146.77Zm-7,7.89A123.37,123.37,0,0,0,29.2,169a93.1,93.1,0,0,0-6.47,12.62,59.5,59.5,0,0,0-3.4,11,49,49,0,0,0-1,9.32A16.09,16.09,0,0,0,20.12,210q1.77,3.06,4.34,3.06c2.3,0,4.39-1.19,6.26-3.55a30.77,30.77,0,0,0,4.79-9.72,84.27,84.27,0,0,0,3.06-14.55,141.51,141.51,0,0,0,1.08-18c0-1.71,0-3.63,0-5.77S39.52,157,39.45,154.66Z"/><path class="cls-1" d="M84.53,121.32a15.25,15.25,0,0,0,5.32,4.58,16.79,16.79,0,0,0,8,1.73,17,17,0,0,0,8.78-2.32,28.82,28.82,0,0,0,7.2-6.06,48.78,48.78,0,0,0,5.82-8.39q2.56-4.64,4.64-9.27a3.66,3.66,0,0,1,1.38-1.63,3.72,3.72,0,0,1,2-.54,3.43,3.43,0,0,1,2.71,1.19,3.8,3.8,0,0,1,1,2.56,2.93,2.93,0,0,1-.1.84,4,4,0,0,1-.3.74q-6.79,15-14.84,22.58a26.63,26.63,0,0,1-18.2,7.8,23.58,23.58,0,0,1-11.24-2.52,23.3,23.3,0,0,1-7.79-6.51,27.46,27.46,0,0,1-4.54-9A35.42,35.42,0,0,1,72.89,107a33.1,33.1,0,0,1,1.23-9.27,23.43,23.43,0,0,1,3.55-7.4,17,17,0,0,1,5.53-4.93,14.2,14.2,0,0,1,7-1.78,11.38,11.38,0,0,1,4.49.94,12.73,12.73,0,0,1,4,2.66,13,13,0,0,1,2.86,4.19,13.91,13.91,0,0,1,1.09,5.62,20.8,20.8,0,0,1-1.38,7.6,25.84,25.84,0,0,1-3.8,6.61,32.44,32.44,0,0,1-5.77,5.62A42.73,42.73,0,0,1,84.53,121.32Zm-3-6.41a23.89,23.89,0,0,0,5.57-3.26,22.85,22.85,0,0,0,4.29-4.34,19.75,19.75,0,0,0,2.76-5,14.78,14.78,0,0,0,1-5.28,6.18,6.18,0,0,0-1.48-4.48A4.67,4.67,0,0,0,90.25,91a7.08,7.08,0,0,0-4.54,1.48,11.18,11.18,0,0,0-3.06,3.84,20.2,20.2,0,0,0-1.72,5.28,31.54,31.54,0,0,0-.54,5.77,21.86,21.86,0,0,0,.34,3.75C81,112.48,81.24,113.72,81.57,114.91Z"/><path class="cls-1" d="M146.17,123.29c1.06-2.17,2.27-4.55,3.65-7.15s2.86-5.23,4.44-7.89,3.24-5.31,5-7.94,3.57-5.13,5.48-7.5a19.53,19.53,0,0,1,5.77-5A11.81,11.81,0,0,1,176,86.3q5.13,0,7.6,3.75A16.55,16.55,0,0,1,186,99.32c0,.86-.05,1.89-.15,3.11s-.19,2.52-.29,3.9-.2,2.77-.3,4.19-.15,2.74-.15,4a41.3,41.3,0,0,0,.25,4.54,13.56,13.56,0,0,0,.94,3.8,5.93,5.93,0,0,0,2,2.56,5.5,5.5,0,0,0,3.35.94,11.42,11.42,0,0,0,7.3-2.91,39.38,39.38,0,0,0,6.56-6.91,62.4,62.4,0,0,0,5.23-8.13q2.22-4.14,3.3-6.71a3.87,3.87,0,0,1,1.43-1.68,3.78,3.78,0,0,1,2-.59,3.38,3.38,0,0,1,2.71,1.23,4,4,0,0,1,1,2.62,3.6,3.6,0,0,1-.29,1.38c-.27.53-.79,1.61-1.58,3.25s-1.83,3.54-3.11,5.68-2.78,4.4-4.49,6.8a45.37,45.37,0,0,1-5.67,6.56,31.85,31.85,0,0,1-6.7,4.93,15.45,15.45,0,0,1-7.55,2,13.42,13.42,0,0,1-7.2-1.72,12.43,12.43,0,0,1-4.34-4.54,18.49,18.49,0,0,1-2.12-6.21,43.76,43.76,0,0,1-.54-6.86c0-1,.05-2.1.15-3.35s.23-2.57.39-4,.3-2.76.39-4.14.15-2.69.15-3.94c0-2.11-.33-3.54-1-4.29A2.64,2.64,0,0,0,176,93.7a5.77,5.77,0,0,0-3.6,1.83,33.31,33.31,0,0,0-4.24,4.78q-2.22,3-4.54,6.66t-4.34,7.35q-2,3.65-3.75,7c-1.15,2.2-2.05,4-2.71,5.47-1.31,2.76-2.63,4.62-3.94,5.58a6.87,6.87,0,0,1-4.05,1.43,6.2,6.2,0,0,1-4.58-1.73,6.61,6.61,0,0,1-1.73-4.88c0-.46.07-1.37.2-2.72s.29-3,.49-4.83.4-3.89.59-6.06.4-4.33.59-6.46.37-4.13.5-6,.19-3.39.19-4.64c0-1.64-.06-3.22-.19-4.73s-.4-2.43-.79-2.76c-.59.19-1.65,1.43-3.16,3.7a77.14,77.14,0,0,0-5.82,12,3.73,3.73,0,0,1-1.48,1.68,4,4,0,0,1-2.07.59,3.34,3.34,0,0,1-2.66-1.14,3.83,3.83,0,0,1-1-2.61,4.2,4.2,0,0,1,.3-1.48q4.44-10.55,8.33-15.53t7.75-5a6.37,6.37,0,0,1,3.84,1.14,8.19,8.19,0,0,1,2.52,3A16.52,16.52,0,0,1,148,89.46a24.57,24.57,0,0,1,.44,4.64q0,1.77-.24,5.52c-.17,2.5-.38,5.18-.65,8s-.51,5.7-.74,8.53S146.37,121.38,146.17,123.29Z"/><path class="cls-1" d="M236.92,123.39c1-2,2.25-4.42,3.79-7.35s3.16-5.87,4.84-8.83,3.32-5.75,4.93-8.38a58.39,58.39,0,0,1,4.09-6,18.27,18.27,0,0,1,5.92-4.93,13.13,13.13,0,0,1,5.62-1.48,8.39,8.39,0,0,1,4.39,1.09,9,9,0,0,1,3,2.91,13.53,13.53,0,0,1,1.77,4.24,21.45,21.45,0,0,1,.6,5.18q0,1.58-.15,4.14t-.3,5.52c-.1,2-.19,4-.29,6.12s-.19,4.07-.25,5.92c1-2,2.1-4.16,3.35-6.56s2.52-4.79,3.8-7.15,2.52-4.59,3.7-6.66A49.89,49.89,0,0,1,289,96.07q4.25-5.82,7.95-7.79a14.24,14.24,0,0,1,6.55-2A11.12,11.12,0,0,1,309,87.54a9.57,9.57,0,0,1,3.4,3.15A12.86,12.86,0,0,1,314.15,95a22.89,22.89,0,0,1,.49,4.54,53.68,53.68,0,0,1-.49,7,65.68,65.68,0,0,0-.5,8.68c0,1.38.07,2.76.2,4.15a12.88,12.88,0,0,0,.84,3.65,5.71,5.71,0,0,0,2,2.56,6.32,6.32,0,0,0,3.75,1,10.48,10.48,0,0,0,5-1.34,21.63,21.63,0,0,0,4.73-3.5,36.48,36.48,0,0,0,4.29-4.93q2-2.76,3.7-5.52t3-5.28q1.27-2.52,2.07-4.29a4,4,0,0,1,1.38-1.68,3.52,3.52,0,0,1,2-.59,3.38,3.38,0,0,1,2.71,1.23,4,4,0,0,1,1,2.62,3.42,3.42,0,0,1-.29,1.38c-.27.53-.79,1.63-1.58,3.3a57.52,57.52,0,0,1-3.16,5.72q-2,3.21-4.58,6.76A50.92,50.92,0,0,1,335,127a30.39,30.39,0,0,1-6.81,4.93,16.29,16.29,0,0,1-7.69,1.92,14.34,14.34,0,0,1-7-1.52,12,12,0,0,1-4.34-4.1,16,16,0,0,1-2.22-5.92,39.58,39.58,0,0,1-.59-7,74.48,74.48,0,0,1,.49-8.92,56.44,56.44,0,0,0,.49-6.37,12.23,12.23,0,0,0-.44-3.74,4.12,4.12,0,0,0-1.09-1.83,2.25,2.25,0,0,0-1.23-.59c-.39,0-.69,0-.89,0q-2.37,0-5,2.61a41.16,41.16,0,0,0-5.37,7q-2.78,4.34-5.68,9.86t-5.87,11.24q-1.67,3.16-2.81,5.23a17.8,17.8,0,0,1-2.17,3.26,6.83,6.83,0,0,1-2,1.67,4.78,4.78,0,0,1-2.17.5,4.55,4.55,0,0,1-3.89-1.78,7.5,7.5,0,0,1-1.34-4.63c0-1,0-2.3.1-4s.13-3.45.2-5.42.16-4,.3-6.12.23-4.13.29-6.07.13-3.66.2-5.17.1-2.67.1-3.46a6,6,0,0,0-.89-3.69,2.58,2.58,0,0,0-2.07-1.14,4.8,4.8,0,0,0-2.42.79,12.78,12.78,0,0,0-3.1,3.06,60.13,60.13,0,0,0-3.5,5.18q-2.13,3.39-4.49,7.54t-4.69,8.48c-1.54,2.9-2.88,5.5-4,7.8a15.85,15.85,0,0,1-4.14,5.67,6.88,6.88,0,0,1-4.05,1.53A5.1,5.1,0,0,1,230.9,132a7.13,7.13,0,0,1-1.38-4.59c0-.19,0-1.38.15-3.55s.21-4.81.34-7.94.28-6.46.45-10,.31-6.87.44-10a25.39,25.39,0,0,0-.2-4.54,4.37,4.37,0,0,0-.79-2.46c-.52.13-1.56,1.35-3.1,3.65a74.68,74.68,0,0,0-5.87,12,3.78,3.78,0,0,1-1.48,1.68,4,4,0,0,1-2.07.59,3.36,3.36,0,0,1-2.67-1.14,3.87,3.87,0,0,1-1-2.61,4.4,4.4,0,0,1,.29-1.48q4.44-10.55,8.49-15.53t7.89-5a6.61,6.61,0,0,1,3.79,1,7.53,7.53,0,0,1,2.42,2.66,12.63,12.63,0,0,1,1.28,3.7,21.88,21.88,0,0,1,.4,4.05q0,8.77-.45,16.07C237.56,113.56,237.24,118.46,236.92,123.39Z"/><path class="cls-2" d="M359.32,54.74a9,9,0,1,1-17.95,0A8.9,8.9,0,0,1,344,48.38a9,9,0,0,1,2.86-1.92,9,9,0,0,1,9.86,1.92,8.75,8.75,0,0,1,1.93,2.86A8.85,8.85,0,0,1,359.32,54.74Z"/><path class="cls-1" d="M343.34,112.54a225.34,225.34,0,0,1,1.78-28.31,4.16,4.16,0,0,1,1.23-2.41,3.66,3.66,0,0,1,2.71-1,3.16,3.16,0,0,1,2.47,1.13,3.91,3.91,0,0,1,1,2.62c0,.39-.08,1.58-.24,3.55s-.37,4.32-.59,7-.43,5.62-.6,8.68-.24,5.87-.24,8.43a28.22,28.22,0,0,0,1,8.44,13.55,13.55,0,0,0,2.66,5A8.28,8.28,0,0,0,358,128a11.42,11.42,0,0,0,3.5.59,10.32,10.32,0,0,0,5.72-2,31.24,31.24,0,0,0,6.06-5.52,69.26,69.26,0,0,0,6.27-8.53q3.15-5,6.21-11.1a3.79,3.79,0,0,1,1.38-1.53,3.75,3.75,0,0,1,2-.54,3.32,3.32,0,0,1,2.61,1.19,3.8,3.8,0,0,1,1,2.56,3.37,3.37,0,0,1-.4,1.68c-.79,1.51-1.77,3.35-3,5.52s-2.53,4.41-4,6.71-3.17,4.58-5,6.85a49.66,49.66,0,0,1-5.77,6.12,29.85,29.85,0,0,1-6.41,4.39,15.2,15.2,0,0,1-6.81,1.67,15.67,15.67,0,0,1-7.79-1.87,17.61,17.61,0,0,1-5.67-5,21.87,21.87,0,0,1-3.46-7.45A36.22,36.22,0,0,1,343.34,112.54Z"/><path class="cls-1" d="M407.55,123.29q1.57-3.26,3.65-7.15t4.44-7.89q2.37-4,5-7.94t5.47-7.5a19.65,19.65,0,0,1,5.77-5,11.85,11.85,0,0,1,5.48-1.53q5.13,0,7.59,3.75a16.55,16.55,0,0,1,2.47,9.27c0,.86,0,1.89-.15,3.11s-.2,2.52-.3,3.9-.19,2.77-.29,4.19-.15,2.74-.15,4a39,39,0,0,0,.25,4.54,13.57,13.57,0,0,0,.93,3.8,6,6,0,0,0,2,2.56,5.5,5.5,0,0,0,3.35.94,11.44,11.44,0,0,0,7.3-2.91,39.75,39.75,0,0,0,6.56-6.91,62.31,62.31,0,0,0,5.22-8.13q2.23-4.14,3.31-6.71a3.8,3.8,0,0,1,1.43-1.68,3.74,3.74,0,0,1,2-.59,3.37,3.37,0,0,1,2.71,1.23,4,4,0,0,1,1,2.62,3.44,3.44,0,0,1-.3,1.38c-.26.53-.79,1.61-1.57,3.25s-1.83,3.54-3.11,5.68-2.78,4.4-4.49,6.8a45.37,45.37,0,0,1-5.67,6.56,31.91,31.91,0,0,1-6.71,4.93,15.41,15.41,0,0,1-7.54,2,13.42,13.42,0,0,1-7.2-1.72,12.43,12.43,0,0,1-4.34-4.54,18.27,18.27,0,0,1-2.12-6.21,42.6,42.6,0,0,1-.55-6.86c0-1,.05-2.1.15-3.35s.23-2.57.4-4,.29-2.76.39-4.14.15-2.69.15-3.94q0-3.16-1-4.29a2.64,2.64,0,0,0-1.77-1.14,5.72,5.72,0,0,0-3.6,1.83,33.31,33.31,0,0,0-4.24,4.78c-1.48,2-3,4.19-4.54,6.66s-3,4.91-4.34,7.35-2.6,4.75-3.75,7-2.06,4-2.71,5.47c-1.32,2.76-2.63,4.62-4,5.58a6.82,6.82,0,0,1-4,1.43,6.21,6.21,0,0,1-4.59-1.73,6.6,6.6,0,0,1-1.72-4.88c0-.46.06-1.37.19-2.72s.3-3,.5-4.83.39-3.89.59-6.06.39-4.33.59-6.46.36-4.13.49-6,.2-3.39.2-4.64c0-1.64-.07-3.22-.2-4.73s-.39-2.43-.78-2.76c-.6.19-1.65,1.43-3.16,3.7a77.14,77.14,0,0,0-5.82,12,3.73,3.73,0,0,1-1.48,1.68,4,4,0,0,1-2.07.59,3.32,3.32,0,0,1-2.66-1.14,3.83,3.83,0,0,1-1-2.61,4.2,4.2,0,0,1,.3-1.48q4.43-10.55,8.33-15.53t7.74-5a6.4,6.4,0,0,1,3.85,1.14,8.07,8.07,0,0,1,2.51,3,15.75,15.75,0,0,1,1.38,4.14,23.78,23.78,0,0,1,.45,4.64c0,1.18-.08,3-.25,5.52s-.38,5.18-.64,8-.51,5.7-.74,8.53S407.75,121.38,407.55,123.29Z"/><path class="cls-1" d="M513.78,103.47q4.83,22.78,14,22.78a10.75,10.75,0,0,0,6.81-2.61,34.27,34.27,0,0,0,6.06-6.42,57.58,57.58,0,0,0,5-8c1.44-2.83,2.63-5.3,3.55-7.4a3.65,3.65,0,0,1,6.11-1.18,3.73,3.73,0,0,1,1.09,2.56,3,3,0,0,1-.3,1.38c-.46,1.12-1.13,2.61-2,4.49s-2,3.88-3.26,6-2.71,4.32-4.29,6.55a38.08,38.08,0,0,1-5.22,6,29.1,29.1,0,0,1-6.07,4.39,14.08,14.08,0,0,1-6.76,1.73,15.73,15.73,0,0,1-11.34-4.59q-4.73-4.59-8.19-15.14-4.72,10.07-9.56,14.6t-10.46,4.53a17.81,17.81,0,0,1-5.72-.93,11.9,11.9,0,0,1-4.83-3.11,16.19,16.19,0,0,1-3.35-5.57,23.65,23.65,0,0,1-1.29-8.34,32.39,32.39,0,0,1,2.37-12.52,33.11,33.11,0,0,1,6.12-9.82,28.07,28.07,0,0,1,8.33-6.36,20.48,20.48,0,0,1,9.12-2.27,3.61,3.61,0,0,1,2.57,1,3.46,3.46,0,0,1,1.08,2.61,3.82,3.82,0,0,1-.88,2.47,3.59,3.59,0,0,1-2.37,1.28,23.47,23.47,0,0,0-6.31,1.87,20.45,20.45,0,0,0-6.17,4.29A22,22,0,0,0,483,105a26.53,26.53,0,0,0-1.83,10.35c0,3.29.67,5.85,2,7.7a6.83,6.83,0,0,0,5.87,2.76,7.84,7.84,0,0,0,3.35-.84,11.77,11.77,0,0,0,3.8-3.31,43.12,43.12,0,0,0,4.44-7A126,126,0,0,0,506,102.68q-1.68-8.69-3.06-20a211.17,211.17,0,0,1-1.38-25.34q0-6.12.39-12.78t1.28-13a109,109,0,0,1,2.37-12.08,53.94,53.94,0,0,1,3.6-10.06,21.44,21.44,0,0,1,5-6.85A9.59,9.59,0,0,1,520.68,0a8.69,8.69,0,0,1,5.53,1.78,12.73,12.73,0,0,1,3.69,4.93A29,29,0,0,1,532,14.3a63.81,63.81,0,0,1,.7,9.77,134,134,0,0,1-2,22.88,221.33,221.33,0,0,1-4.88,21.9q-2.91,10.45-6.16,19.33T513.78,103.47ZM525.32,24c0-1.65-.05-3.42-.15-5.33a34.05,34.05,0,0,0-.69-5.37,16.46,16.46,0,0,0-1.43-4.2,2.66,2.66,0,0,0-2.37-1.67c-1.64,0-3.17,1.44-4.58,4.34a52.11,52.11,0,0,0-3.7,11.39,140.53,140.53,0,0,0-2.52,16,173.56,173.56,0,0,0-.94,18q0,8.69.7,17.36c.45,5.78,1,11,1.57,15.48q2.87-7.59,5.43-15.63t4.49-16.42q1.92-8.38,3-16.92A128.35,128.35,0,0,0,525.32,24Z"/></g></g></svg>